<svg width="55" height="55" viewBox="0 0 55 55" fill="none" xmlns="http://www.w3.org/2000/svg">
<path d="M38.9583 4.58301H16.0416C9.71333 4.58301 4.58325 9.71309 4.58325 16.0413V38.958C4.58325 45.2862 9.71333 50.4163 16.0416 50.4163H38.9583C45.2865 50.4163 50.4166 45.2862 50.4166 38.958V16.0413C50.4166 9.71309 45.2865 4.58301 38.9583 4.58301Z" stroke="white" stroke-width="4.79167" stroke-linecap="round" stroke-linejoin="round"/>
<path d="M36.6662 26.0565C36.949 27.9636 36.6231 29.9115 35.7351 31.6229C34.8471 33.3343 33.442 34.7222 31.7199 35.5891C29.9977 36.4558 28.0459 36.7576 26.1422 36.4512C24.2387 36.1451 22.4801 35.2463 21.1168 33.883C19.7534 32.5194 18.8546 30.761 18.5483 28.8573C18.242 26.9536 18.5437 25.0021 19.4106 23.2799C20.2774 21.5576 21.6653 20.1525 23.3766 19.2645C25.088 18.3765 27.0359 18.0507 28.9433 18.3335C30.8887 18.622 32.6897 19.5286 34.0803 20.9192C35.4711 22.3099 36.3777 24.1111 36.6662 26.0565Z" stroke="white" stroke-width="4.79167" stroke-linecap="round" stroke-linejoin="round"/>
<path d="M40.1042 14.8955H40.1272" stroke="white" stroke-width="4.79167" stroke-linecap="round" stroke-linejoin="round"/>
</svg>
